<svg xmlns="http://www.w3.org/2000/svg" xmlns:xlink="http://www.w3.org/1999/xlink" width="33.88" height="33.88" viewBox="0 0 33.88 33.88">
  <defs>
    <clipPath id="clip-path">
      <rect id="Rectangle_1110" data-name="Rectangle 1110" width="33.88" height="33.88" rx="16.94" transform="translate(640 711)" fill="#c2c1ca"/>
    </clipPath>
  </defs>
  <g id="location-icon" transform="translate(-640 -711)" clip-path="url(#clip-path)">
    <g id="Call" transform="translate(641.338 710.798)">
      <path id="Path_19" data-name="Path 19" d="M24.916,20.736a12.719,12.719,0,0,1-3.993-.639,1.677,1.677,0,0,0-1.647.349l-2.226,1.607a14.137,14.137,0,0,1-6.359-6.359l1.557-2.166a1.677,1.677,0,0,0,.409-1.7,12.739,12.739,0,0,1-.639-3.993A1.667,1.667,0,0,0,10.361,6.16H6.287A1.667,1.667,0,0,0,4.62,7.827a20.326,20.326,0,0,0,20.3,20.3,1.667,1.667,0,0,0,1.667-1.667V22.393a1.667,1.667,0,0,0-1.667-1.657Z" fill="#303c42"/>
    </g>
  </g>
</svg>
